<?xml version="1.0" encoding="UTF-8"?>
<svg width="1106px" height="19px" viewBox="0 0 1106 19" version="1.1" xmlns="http://www.w3.org/2000/svg" xmlns:xlink="http://www.w3.org/1999/xlink">
    <!-- Generator: sketchtool 57.1 (101010) - https://sketch.com -->
    <title>B30E9DD5-1ECF-4DBD-BFD4-9BB896FB0598</title>
    <desc>Created with sketchtool.</desc>
    <defs>
        <linearGradient x1="0%" y1="49.5395878%" x2="100%" y2="50.4604122%" id="linearGradient-1">
            <stop stop-color="#1D3EDE" offset="0%"></stop>
            <stop stop-color="#01E4F8" offset="100%"></stop>
        </linearGradient>
    </defs>
    <g id="Page-2" stroke="none" stroke-width="1" fill="none" fill-rule="evenodd">
        <g id="Home-1920" transform="translate(-405.000000, -31.000000)" fill="#FFFFFF">
            <g id="Hero">
                <g id="Navigation-" transform="translate(405.000000, 31.000000)">
                    <g id="Nav">
                        <g id="Logo" fill-rule="nonzero">
                            <path d="M10.2539062,12.1972656 L5.21484375,12.1972656 L4.52148438,14.5605469 L0,14.5605469 L5.38085938,0.244140625 L10.2050781,0.244140625 L15.5859375,14.5605469 L10.9570312,14.5605469 L10.2539062,12.1972656 Z M9.32617188,9.1015625 L7.74414062,3.95507812 L6.171875,9.1015625 L9.32617188,9.1015625 Z M28.3007812,7.59765625 L31.40625,8.29101562 C31.2434888,8.86393516 31.0872403,9.32291494 30.9375,9.66796875 C30.7877597,10.0130226 30.5761732,10.4199195 30.3027344,10.8886719 L31.796875,11.9140625 C31.9791676,12.0312506 32.2135402,12.1712231 32.5,12.3339844 L30.3613281,14.7949219 C29.9707012,14.5865875 29.5654318,14.3457045 29.1455078,14.0722656 C28.7255838,13.7988268 28.349611,13.5644541 28.0175781,13.3691406 C27.3274705,13.8248721 26.6373732,14.1569 25.9472656,14.3652344 C24.9902296,14.6516941 23.9030009,14.7949219 22.6855469,14.7949219 C20.7779853,14.7949219 19.3587286,14.3977904 18.4277344,13.6035156 C17.4967401,12.8092408 17.03125,11.8457088 17.03125,10.7128906 C17.03125,9.89908447 17.3046848,9.1292354 17.8515625,8.40332031 C18.3984402,7.67740522 19.2936136,7.06380459 20.5371094,6.5625 C20.0162734,5.93098643 19.6582041,5.38248931 19.4628906,4.91699219 C19.2675771,4.45149507 19.1699219,3.97786699 19.1699219,3.49609375 C19.1699219,2.48046367 19.5572878,1.6438835 20.3320312,0.986328125 C21.1067747,0.328772754 22.2818932,0 23.8574219,0 C25.4655028,0 26.6471316,0.312496875 27.4023438,0.9375 C28.1575559,1.56250312 28.5351562,2.31119355 28.5351562,3.18359375 C28.5351562,3.67187744 28.4195975,4.14062275 28.1884766,4.58984375 C27.9573556,5.03906475 27.6790381,5.40364443 27.3535156,5.68359375 C27.0279932,5.96354307 26.4453167,6.38020557 25.6054688,6.93359375 C26.3020868,7.63021182 27.027991,8.2779918 27.7832031,8.87695312 C27.9850271,8.47330527 28.1575514,8.04687725 28.3007812,7.59765625 Z M23.7304688,5.08789062 C24.2447942,4.80794131 24.6419257,4.50358237 24.921875,4.17480469 C25.2018243,3.846027 25.3417969,3.53515771 25.3417969,3.2421875 C25.3417969,2.93619639 25.2246105,2.67740991 24.9902344,2.46582031 C24.7558582,2.25423071 24.4335958,2.1484375 24.0234375,2.1484375 C23.6197896,2.1484375 23.2910169,2.26562383 23.0371094,2.5 C22.7832019,2.73437617 22.65625,3.01106611 22.65625,3.33007812 C22.65625,3.73372598 23.0143193,4.31965762 23.7304688,5.08789062 Z M22.3144531,8.56445312 C21.7675754,8.94856963 21.4046233,9.27734238 21.2255859,9.55078125 C21.0465486,9.82422012 20.9570312,10.1139308 20.9570312,10.4199219 C20.9570312,10.8951847 21.1621073,11.3183575 21.5722656,11.6894531 C21.9824239,12.0605487 22.5162728,12.2460938 23.1738281,12.2460938 C23.8834671,12.2460938 24.6809852,11.9694038 25.5664062,11.4160156 C24.7200479,10.7649707 23.6360743,9.81445937 22.3144531,8.56445312 Z M34.4238281,0.244140625 L46.9433594,0.244140625 L46.9433594,3.10546875 L38.9160156,11.484375 L47.2363281,11.484375 L47.2363281,14.5605469 L33.6523438,14.5605469 L33.6523438,11.5917969 L41.5917969,3.30078125 L34.4238281,3.30078125 L34.4238281,0.244140625 Z M55.9570312,0.244140625 L62.5292969,0.244140625 C63.8248763,0.244140625 64.8714153,0.419920117 65.6689453,0.771484375 C66.4664753,1.12304863 67.1256484,1.62760088 67.6464844,2.28515625 C68.1673203,2.94271162 68.5449207,3.70767793 68.7792969,4.58007812 C69.013673,5.45247832 69.1308594,6.37694824 69.1308594,7.35351562 C69.1308594,8.88347119 68.9567075,10.0699828 68.6083984,10.9130859 C68.2600894,11.7561891 67.7766958,12.4625623 67.1582031,13.0322266 C66.5397104,13.6018909 65.8756546,13.9811188 65.1660156,14.1699219 C64.1959587,14.4303398 63.3170612,14.5605469 62.5292969,14.5605469 L55.9570312,14.5605469 L55.9570312,0.244140625 Z M60.3808594,3.48632812 L60.3808594,11.3085938 L61.4648438,11.3085938 C62.3893275,11.3085938 63.046873,11.2060557 63.4375,11.0009766 C63.828127,10.7958974 64.1341135,10.4378281 64.3554688,9.92675781 C64.576824,9.41568755 64.6875,8.58724531 64.6875,7.44140625 C64.6875,5.92447158 64.4401066,4.88607051 63.9453125,4.32617188 C63.4505184,3.76627324 62.6302141,3.48632812 61.484375,3.48632812 L60.3808594,3.48632812 Z M82.7050781,10.3613281 L74.7363281,10.3613281 C74.8079431,10.9993521 74.9804674,11.4746078 75.2539062,11.7871094 C75.6380228,12.2363304 76.1393198,12.4609375 76.7578125,12.4609375 C77.1484395,12.4609375 77.5195295,12.3632822 77.8710938,12.1679688 C78.0859386,12.0442702 78.3170561,11.8261734 78.5644531,11.5136719 L82.4804688,11.875 C81.8815074,12.9166719 81.1588584,13.6637347 80.3125,14.1162109 C79.4661416,14.5686872 78.251961,14.7949219 76.6699219,14.7949219 C75.2962171,14.7949219 74.2154987,14.6012389 73.4277344,14.2138672 C72.63997,13.8264955 71.9873073,13.2112672 71.4697266,12.3681641 C70.9521458,11.5250609 70.6933594,10.5338599 70.6933594,9.39453125 C70.6933594,7.77342939 71.2125599,6.46159355 72.2509766,5.45898438 C73.2893932,4.4563752 74.7232981,3.95507812 76.5527344,3.95507812 C78.0371168,3.95507812 79.2089801,4.17968525 80.0683594,4.62890625 C80.9277387,5.07812725 81.582029,5.7291624 82.03125,6.58203125 C82.480471,7.4349001 82.7050781,8.54491504 82.7050781,9.91210938 L82.7050781,10.3613281 Z M78.6621094,8.45703125 C78.583984,7.68879824 78.3772803,7.13867354 78.0419922,6.80664062 C77.7067041,6.47460771 77.2656277,6.30859375 76.71875,6.30859375 C76.0872364,6.30859375 75.5826842,6.55924229 75.2050781,7.06054688 C74.9641915,7.37304844 74.8111982,7.83853857 74.7460938,8.45703125 L78.6621094,8.45703125 Z M83.3496094,4.18945312 L87.4902344,4.18945312 L89.5019531,10.7617188 L91.5820312,4.18945312 L95.5957031,4.18945312 L91.1914062,14.5605469 L87.6660156,14.5605469 L83.3496094,4.18945312 Z M108.261719,10.3613281 L100.292969,10.3613281 C100.364584,10.9993521 100.537108,11.4746078 100.810547,11.7871094 C101.194663,12.2363304 101.69596,12.4609375 102.314453,12.4609375 C102.70508,12.4609375 103.07617,12.3632822 103.427734,12.1679688 C103.642579,12.0442702 103.873697,11.8261734 104.121094,11.5136719 L108.037109,11.875 C107.438148,12.9166719 106.715499,13.6637347 105.869141,14.1162109 C105.022782,14.5686872 103.808602,14.7949219 102.226562,14.7949219 C100.852858,14.7949219 99.7721394,14.6012389 98.984375,14.2138672 C98.1966106,13.8264955 97.5439479,13.2112672 97.0263672,12.3681641 C96.5087865,11.5250609 96.25,10.5338599 96.25,9.39453125 C96.25,7.77342939 96.7692005,6.46159355 97.8076172,5.45898438 C98.8460338,4.4563752 100.279939,3.95507812 102.109375,3.95507812 C103.593757,3.95507812 104.765621,4.17968525 105.625,4.62890625 C106.484379,5.07812725 107.13867,5.7291624 107.587891,6.58203125 C108.037112,7.4349001 108.261719,8.54491504 108.261719,9.91210938 L108.261719,10.3613281 Z M104.21875,8.45703125 C104.140625,7.68879824 103.933921,7.13867354 103.598633,6.80664062 C103.263345,6.47460771 102.822268,6.30859375 102.275391,6.30859375 C101.643877,6.30859375 101.139325,6.55924229 100.761719,7.06054688 C100.520832,7.37304844 100.367839,7.83853857 100.302734,8.45703125 L104.21875,8.45703125 Z M110.224609,0.244140625 L114.208984,0.244140625 L114.208984,14.5605469 L110.224609,14.5605469 L110.224609,0.244140625 Z M116.259766,9.40429688 C116.259766,7.82225771 116.793614,6.51855981 117.861328,5.49316406 C118.929042,4.46776831 120.371085,3.95507812 122.1875,3.95507812 C124.264333,3.95507812 125.833328,4.55728564 126.894531,5.76171875 C127.7474,6.73177568 128.173828,7.9264252 128.173828,9.34570312 C128.173828,10.9407632 127.644862,12.2477163 126.586914,13.2666016 C125.528966,14.2854869 124.065765,14.7949219 122.197266,14.7949219 C120.530591,14.7949219 119.182948,14.371749 118.154297,13.5253906 C116.89127,12.4772083 116.259766,11.1035241 116.259766,9.40429688 Z M120.244141,9.39453125 C120.244141,10.319015 120.431313,11.002602 120.805664,11.4453125 C121.180015,11.888023 121.650388,12.109375 122.216797,12.109375 C122.789716,12.109375 123.260089,11.8912782 123.62793,11.4550781 C123.99577,11.018878 124.179688,10.3190152 124.179688,9.35546875 C124.179688,8.45702676 123.994142,7.78808813 123.623047,7.34863281 C123.251951,6.90917749 122.792971,6.68945312 122.246094,6.68945312 C121.666664,6.68945312 121.188153,6.91243267 120.810547,7.35839844 C120.432941,7.80436421 120.244141,8.48306836 120.244141,9.39453125 Z M130.107422,18.5058594 L130.107422,4.18945312 L133.828125,4.18945312 L133.828125,5.72265625 C134.34245,5.07812178 134.814451,4.64192822 135.244141,4.4140625 C135.823571,4.10807139 136.46484,3.95507812 137.167969,3.95507812 C138.554694,3.95507812 139.627275,4.48567178 140.385742,5.546875 C141.14421,6.60807822 141.523438,7.91991406 141.523438,9.48242188 C141.523438,11.2076909 141.11003,12.5244095 140.283203,13.4326172 C139.456376,14.3408249 138.411465,14.7949219 137.148438,14.7949219 C136.536455,14.7949219 135.978193,14.6907562 135.473633,14.4824219 C134.969073,14.2740875 134.518231,13.9648458 134.121094,13.5546875 L134.121094,18.5058594 L130.107422,18.5058594 Z M134.091797,9.40429688 C134.091797,10.2246135 134.264321,10.8333313 134.609375,11.2304688 C134.954429,11.6276062 135.390622,11.8261719 135.917969,11.8261719 C136.380211,11.8261719 136.767577,11.6357441 137.080078,11.2548828 C137.39258,10.8740215 137.548828,10.2278691 137.548828,9.31640625 C137.548828,8.4765583 137.386069,7.85970249 137.060547,7.46582031 C136.735024,7.07193813 136.337893,6.875 135.869141,6.875 C135.361326,6.875 134.938153,7.07356572 134.599609,7.47070312 C134.261066,7.86784053 134.091797,8.51236533 134.091797,9.40429688 Z M143.457031,4.18945312 L147.167969,4.18945312 L147.167969,5.703125 C147.701826,5.07161143 148.240557,4.62239717 148.78418,4.35546875 C149.327802,4.08854033 149.98372,3.95507812 150.751953,3.95507812 C151.57878,3.95507812 152.233071,4.10156104 152.714844,4.39453125 C153.196617,4.68750146 153.590493,5.12369502 153.896484,5.703125 C154.521488,5.02603828 155.091143,4.56543091 155.605469,4.32128906 C156.119794,4.07714722 156.754554,3.95507812 157.509766,3.95507812 C158.623052,3.95507812 159.492184,4.28547847 160.117188,4.94628906 C160.742191,5.60709966 161.054688,6.64061797 161.054688,8.046875 L161.054688,14.5605469 L157.070312,14.5605469 L157.070312,8.65234375 C157.070312,8.18359141 156.979168,7.8352876 156.796875,7.60742188 C156.529947,7.24934717 156.197919,7.0703125 155.800781,7.0703125 C155.332029,7.0703125 154.954429,7.23958164 154.667969,7.578125 C154.381509,7.91666836 154.238281,8.46028271 154.238281,9.20898438 L154.238281,14.5605469 L150.253906,14.5605469 L150.253906,8.84765625 C150.253906,8.3919248 150.227865,8.08268311 150.175781,7.91992188 C150.091145,7.65950391 149.944662,7.44954507 149.736328,7.29003906 C149.527994,7.13053306 149.283856,7.05078125 149.003906,7.05078125 C148.548175,7.05078125 148.17383,7.22330557 147.880859,7.56835938 C147.587889,7.91341318 147.441406,8.47981377 147.441406,9.26757812 L147.441406,14.5605469 L143.457031,14.5605469 L143.457031,4.18945312 Z M174.941406,10.3613281 L166.972656,10.3613281 C167.044271,10.9993521 167.216796,11.4746078 167.490234,11.7871094 C167.874351,12.2363304 168.375648,12.4609375 168.994141,12.4609375 C169.384768,12.4609375 169.755858,12.3632822 170.107422,12.1679688 C170.322267,12.0442702 170.553384,11.8261734 170.800781,11.5136719 L174.716797,11.875 C174.117836,12.9166719 173.395187,13.6637347 172.548828,14.1162109 C171.70247,14.5686872 170.488289,14.7949219 168.90625,14.7949219 C167.532545,14.7949219 166.451827,14.6012389 165.664062,14.2138672 C164.876298,13.8264955 164.223635,13.2112672 163.706055,12.3681641 C163.188474,11.5250609 162.929688,10.5338599 162.929688,9.39453125 C162.929688,7.77342939 163.448888,6.46159355 164.487305,5.45898438 C165.525721,4.4563752 166.959626,3.95507812 168.789062,3.95507812 C170.273445,3.95507812 171.445308,4.17968525 172.304688,4.62890625 C173.164067,5.07812725 173.818357,5.7291624 174.267578,6.58203125 C174.716799,7.4349001 174.941406,8.54491504 174.941406,9.91210938 L174.941406,10.3613281 Z M170.898438,8.45703125 C170.820312,7.68879824 170.613608,7.13867354 170.27832,6.80664062 C169.943032,6.47460771 169.501956,6.30859375 168.955078,6.30859375 C168.323565,6.30859375 167.819012,6.55924229 167.441406,7.06054688 C167.20052,7.37304844 167.047526,7.83853857 166.982422,8.45703125 L170.898438,8.45703125 Z M176.767578,4.18945312 L180.46875,4.18945312 L180.46875,5.87890625 C181.022138,5.18879863 181.582028,4.6956395 182.148438,4.39941406 C182.714847,4.10318862 183.404944,3.95507812 184.21875,3.95507812 C185.319016,3.95507812 186.18001,4.28222329 186.801758,4.93652344 C187.423506,5.59082358 187.734375,6.60155566 187.734375,7.96875 L187.734375,14.5605469 L183.740234,14.5605469 L183.740234,8.85742188 C183.740234,8.20637695 183.619793,7.74576958 183.378906,7.47558594 C183.13802,7.20540229 182.799481,7.0703125 182.363281,7.0703125 C181.881508,7.0703125 181.490887,7.25260234 181.191406,7.6171875 C180.891926,7.98177266 180.742188,8.63606299 180.742188,9.58007812 L180.742188,14.5605469 L176.767578,14.5605469 L176.767578,4.18945312 Z M194.902344,0.244140625 L194.902344,4.18945312 L197.089844,4.18945312 L197.089844,7.08984375 L194.902344,7.08984375 L194.902344,10.7714844 C194.902344,11.2141949 194.944661,11.5071607 195.029297,11.6503906 C195.159506,11.8717459 195.387368,11.9824219 195.712891,11.9824219 C196.005861,11.9824219 196.416013,11.8977873 196.943359,11.7285156 L197.236328,14.4726562 C196.25325,14.6875011 195.335291,14.7949219 194.482422,14.7949219 C193.492834,14.7949219 192.763674,14.66797 192.294922,14.4140625 C191.82617,14.160155 191.479493,13.7744167 191.254883,13.2568359 C191.030272,12.7392552 190.917969,11.9010475 190.917969,10.7421875 L190.917969,7.08984375 L189.453125,7.08984375 L189.453125,4.18945312 L190.917969,4.18945312 L190.917969,2.28515625 L194.902344,0.244140625 Z" id="A&amp;ZDevelopment"></path>
                        </g>
                        <g transform="translate(973.000000, 2.000000)" font-family="Archivo-Regular, Archivo" font-size="14" font-weight="normal">
                            <text id="Contacts">
                                <tspan x="78" y="12">Contacts</tspan>
                            </text>
                            <text id=".">
                                <tspan x="64" y="12">.</tspan>
                            </text>
                            <text id="Services">
                                <tspan x="0" y="12">Services</tspan>
                            </text>
                        </g>
                    </g>
                </g>
            </g>
        </g>
    </g>
</svg>